<?xml version="1.0" encoding="iso-8859-1"?>
<!-- Generator: Adobe Illustrator 19.0.0, SVG Export Plug-In . SVG Version: 6.00 Build 0)  -->
<svg version="1.1" id="Capa_1" xmlns="http://www.w3.org/2000/svg" xmlns:xlink="http://www.w3.org/1999/xlink" x="0px" y="0px"
	 viewBox="0 0 511.968 511.968" style="enable-background:new 0 0 511.968 511.968;" xml:space="preserve">
<g>
	<g>
		<path d="M453.379,392.227c-35.147-13.141-61.887-24.757-79.472-34.506c-1.93-1.071-4.368-0.376-5.438,1.562
			c-1.071,1.93-0.368,4.368,1.562,5.437c17.929,9.938,45.028,21.71,80.542,35.006c30.756,11.483,45.396,22.233,45.396,52.247v51.997
			H15.998v-51.997c0-30.014,14.64-40.764,45.396-52.247c34.916-13.046,62.766-25.147,80.538-35.014
			c1.93-1.062,2.629-3.499,1.555-5.437c-1.07-1.93-3.492-2.633-5.437-1.547c-17.429,9.663-44.904,21.592-79.453,34.498
			c-32.814,12.265-50.598,25.412-50.598,59.746v55.996c0,2.211,1.789,4,4,4h487.97c2.211,0,4-1.789,4.001-3.999v-55.996
			C503.97,417.639,486.19,404.492,453.379,392.227z"/>
	</g>
</g>
<g>
	<g>
		<path d="M395.977,191.988c-2.211,0-4,1.789-4,4c0,88.939-83.526,163.99-135.992,163.99c-52.462,0-135.992-75.051-135.992-163.99
			c0-2.211-1.79-4-4-4c-2.211,0-4,1.789-4,4c0,93.275,88.444,171.989,143.991,171.989c55.543,0,143.991-78.714,143.992-171.989
			C399.975,193.777,398.186,191.988,395.977,191.988z"/>
	</g>
</g>
<g>
	<g>
		<path d="M256.222,391.976h-0.078c-2.211,0-3.961,1.789-3.961,4c0,2.21,1.832,3.999,4.039,3.999c2.211,0,4-1.789,4-3.999
			C260.222,393.765,258.433,391.976,256.222,391.976z"/>
	</g>
</g>
<g>
	<g>
		<path d="M256.222,423.974h-0.078c-2.211,0-3.961,1.789-3.961,4c0,2.21,1.832,3.999,4.039,3.999c2.211,0,4-1.789,4-3.999
			C260.222,425.763,258.433,423.974,256.222,423.974z"/>
	</g>
</g>
<g>
	<g>
		<path d="M256.222,455.972h-0.078c-2.211,0-3.961,1.789-3.961,4c0,2.21,1.832,3.999,4.039,3.999c2.211,0,4-1.789,4-3.999
			C260.222,457.761,258.433,455.972,256.222,455.972z"/>
	</g>
</g>
<g>
	<g>
		<path d="M256.222,487.97h-0.078c-2.211,0-3.961,1.789-3.961,4c0,2.21,1.832,3.999,4.039,3.999c2.211,0,4-1.789,4-3.999
			C260.222,489.759,258.433,487.97,256.222,487.97z"/>
	</g>
</g>
<g>
	<g>
		<path d="M355.978,327.98c-2.211,0-4,1.789-4,3.999v15.999c0,2.211,1.789,4,4,4s4-1.789,4-4v-15.999
			C359.978,329.769,358.189,327.98,355.978,327.98z"/>
	</g>
</g>
<g>
	<g>
		<path d="M358.306,344.728c-1.797-1.28-4.297-0.859-5.578,0.922l-39.998,55.997c-1.289,1.797-0.875,4.297,0.922,5.578
			c0.703,0.508,1.516,0.75,2.328,0.75c1.25,0,2.469-0.578,3.25-1.672l39.998-55.997
			C360.517,348.509,360.103,346.009,358.306,344.728z"/>
	</g>
</g>
<g>
	<g>
		<path d="M317.769,400.397l-47.997-23.999c-1.976-0.983-4.374-0.188-5.366,1.789c-0.988,1.976-0.188,4.383,1.789,5.367
			l47.996,23.999c0.57,0.281,1.18,0.422,1.789,0.422c1.469,0,2.875-0.812,3.578-2.211
			C320.542,403.788,319.746,401.381,317.769,400.397z"/>
	</g>
</g>
<g>
	<g>
		<path d="M155.989,327.98c-2.211,0-4,1.789-4,3.999v15.999c0,2.211,1.79,4,4,4c2.211,0,4-1.789,4-4v-15.999
			C159.989,329.769,158.2,327.98,155.989,327.98z"/>
	</g>
</g>
<g>
	<g>
		<path d="M199.241,401.647l-39.998-55.997c-1.286-1.797-3.778-2.21-5.578-0.922c-1.797,1.281-2.215,3.781-0.93,5.578l39.998,55.997
			c0.781,1.094,2.008,1.672,3.258,1.672c0.804,0,1.617-0.242,2.321-0.75C200.108,405.944,200.527,403.444,199.241,401.647z"/>
	</g>
</g>
<g>
	<g>
		<path d="M247.563,378.187c-0.988-1.977-3.39-2.772-5.367-1.789l-47.997,23.999c-1.977,0.984-2.777,3.39-1.789,5.367
			c0.703,1.399,2.113,2.211,3.582,2.211c0.601,0,1.211-0.14,1.785-0.422l47.997-23.999
			C247.751,382.57,248.551,380.164,247.563,378.187z"/>
	</g>
</g>
<g>
	<g>
		<path d="M384.234,82.078c-15.874-18.542-37.311-21.312-48.677-21.312c-1.047,0-1.976,0.027-2.781,0.062
			c-2.39-9.28-7.03-37.755,21.577-49.528c1.656-0.68,2.656-2.379,2.453-4.156c-0.203-1.782-1.57-3.207-3.336-3.492
			C351.158,3.277,330.074,0,301.684,0c-48.606,0-115.04,9.335-155.544,53.812c-27.667,30.377-39.151,72.952-34.131,126.547
			c0.164,1.735,1.426,3.16,3.121,3.535c0.289,0.063,0.578,0.094,0.863,0.094c1.402,0,2.73-0.738,3.456-1.986l31.736-54.47
			c12.691,4.957,59.497,21.983,103.658,21.983c44.295,0,91.682-17.12,104.338-22.022l33.381,54.583
			c0.882,1.425,2.539,2.187,4.194,1.835c1.649-0.328,2.914-1.648,3.172-3.304C406.944,135.586,401.663,102.436,384.234,82.078z
			 M393.522,168.313l-29.28-47.868c-0.749-1.223-2.061-1.914-3.413-1.914c-0.508,0-1.032,0.098-1.522,0.306
			c-0.555,0.226-55.497,22.678-104.463,22.678c-48.95,0-103.29-22.447-103.833-22.674c-1.855-0.769-3.984-0.058-5,1.68
			l-26.924,46.212c-1.96-45.2,9.105-81.335,32.967-107.533C190.59,16.882,254.692,8,301.686,8c15.967,0,29.538,1.055,38.607,2.019
			c-26.562,19.6-14.359,55.954-14.218,56.36c0.625,1.797,2.453,2.89,4.328,2.652c0.125-0.02,2.053-0.266,5.155-0.266
			c9.991,0,28.81,2.406,42.606,18.514C392.592,104.141,397.749,131.37,393.522,168.313z"/>
	</g>
</g>
<g>
	<g>
		<path d="M267.983,391.976c-2.21,0-3.999,1.789-3.999,4v111.992c0,2.211,1.789,4,3.999,4c2.211,0,4-1.789,4-4V395.976
			C271.983,393.765,270.194,391.976,267.983,391.976z"/>
	</g>
</g>
<g>
	<g>
		<path d="M243.985,391.976c-2.211,0-4,1.789-4,4v111.992c0,2.211,1.789,4,4,4s3.999-1.789,4-4V395.976
			C247.985,393.765,246.196,391.976,243.985,391.976z"/>
	</g>
</g>
<g>
	<g>
		<path d="M411.973,471.971h-79.995c-2.21,0-3.999,1.788-3.999,3.999s1.789,4,3.999,4h79.995c2.211,0,4-1.789,4-4
			S414.184,471.971,411.973,471.971z"/>
	</g>
</g>
<g>
	<g>
		<path d="M331.978,471.971c-2.21,0-3.999,1.788-3.999,3.999v16c0,2.21,1.789,3.999,3.999,3.999c2.211,0,4-1.789,4-3.999v-16
			C335.978,473.759,334.189,471.971,331.978,471.971z"/>
	</g>
</g>
<g>
	<g>
		<path d="M411.973,471.971c-2.211,0-3.999,1.788-3.999,3.999v16c0,2.21,1.788,3.999,3.999,3.999s4-1.789,4-3.999v-16
			C415.973,473.759,414.184,471.971,411.973,471.971z"/>
	</g>
</g>
<g>
	<g>
		<path d="M366.804,441.144c-1.562-1.562-4.093-1.562-5.655,0l-23.999,23.999c-1.562,1.562-1.562,4.094,0,5.656
			c0.781,0.781,1.805,1.172,2.828,1.172c1.024,0,2.047-0.39,2.828-1.172l23.998-23.999
			C368.366,445.238,368.366,442.706,366.804,441.144z"/>
	</g>
</g>
<g>
	<g>
		<path d="M390.803,465.143l-23.999-23.999c-1.562-1.562-4.093-1.562-5.655,0s-1.562,4.094,0,5.656l23.998,23.999
			c0.781,0.781,1.805,1.172,2.828,1.172c1.024,0,2.047-0.39,2.828-1.172C392.366,469.237,392.366,466.705,390.803,465.143z"/>
	</g>
</g>
<g>
	<g>
		<path d="M406.803,465.143l-23.999-23.999c-1.562-1.562-4.094-1.562-5.656,0s-1.562,4.094,0,5.656l23.999,23.999
			c0.781,0.781,1.805,1.172,2.828,1.172c1.024,0,2.047-0.39,2.828-1.172C408.365,469.237,408.365,466.705,406.803,465.143z"/>
	</g>
</g>
<g>
</g>
<g>
</g>
<g>
</g>
<g>
</g>
<g>
</g>
<g>
</g>
<g>
</g>
<g>
</g>
<g>
</g>
<g>
</g>
<g>
</g>
<g>
</g>
<g>
</g>
<g>
</g>
<g>
</g>
</svg>
