<?xml version="1.0" encoding="UTF-8" standalone="no"?><svg xmlns:svg="http://www.w3.org/2000/svg" xmlns="http://www.w3.org/2000/svg" xmlns:xlink="http://www.w3.org/1999/xlink" version="1.0" width="64px" height="64px" viewBox="0 0 128 128" xml:space="preserve"><g><path d="M80.53 2.18a2 2 0 0 1 1.42 2.45L74.7 31.67a2 2 0 0 1-3.86-1.03L78.08 3.6a2 2 0 0 1 2.45-1.42z" fill="#e5e5e5"/><path d="M80.53 2.18a2 2 0 0 1 1.42 2.45L74.7 31.67a2 2 0 0 1-3.86-1.03L78.08 3.6a2 2 0 0 1 2.45-1.42z" fill="#e5e5e5" transform="rotate(15 64 64)"/><path d="M80.53 2.18a2 2 0 0 1 1.42 2.45L74.7 31.67a2 2 0 0 1-3.86-1.03L78.08 3.6a2 2 0 0 1 2.45-1.42z" fill="#e5e5e5" transform="rotate(30 64 64)"/><path d="M80.53 2.18a2 2 0 0 1 1.42 2.45L74.7 31.67a2 2 0 0 1-3.86-1.03L78.08 3.6a2 2 0 0 1 2.45-1.42z" fill="#e5e5e5" transform="rotate(45 64 64)"/><path d="M80.53 2.18a2 2 0 0 1 1.42 2.45L74.7 31.67a2 2 0 0 1-3.86-1.03L78.08 3.6a2 2 0 0 1 2.45-1.42z" fill="#e5e5e5" transform="rotate(60 64 64)"/><path d="M80.53 2.18a2 2 0 0 1 1.42 2.45L74.7 31.67a2 2 0 0 1-3.86-1.03L78.08 3.6a2 2 0 0 1 2.45-1.42z" fill="#e5e5e5" transform="rotate(75 64 64)"/><path d="M80.53 2.18a2 2 0 0 1 1.42 2.45L74.7 31.67a2 2 0 0 1-3.86-1.03L78.08 3.6a2 2 0 0 1 2.45-1.42z" fill="#e5e5e5" transform="rotate(90 64 64)"/><path d="M80.53 2.18a2 2 0 0 1 1.42 2.45L74.7 31.67a2 2 0 0 1-3.86-1.03L78.08 3.6a2 2 0 0 1 2.45-1.42z" fill="#e5e5e5" transform="rotate(105 64 64)"/><path d="M80.53 2.18a2 2 0 0 1 1.42 2.45L74.7 31.67a2 2 0 0 1-3.86-1.03L78.08 3.6a2 2 0 0 1 2.45-1.42z" fill="#e5e5e5" transform="rotate(120 64 64)"/><path d="M80.53 2.18a2 2 0 0 1 1.42 2.45L74.7 31.67a2 2 0 0 1-3.86-1.03L78.08 3.6a2 2 0 0 1 2.45-1.42z" fill="#e5e5e5" transform="rotate(135 64 64)"/><path d="M80.53 2.18a2 2 0 0 1 1.42 2.45L74.7 31.67a2 2 0 0 1-3.86-1.03L78.08 3.6a2 2 0 0 1 2.45-1.42z" fill="#e5e5e5" transform="rotate(150 64 64)"/><path d="M80.53 2.18a2 2 0 0 1 1.42 2.45L74.7 31.67a2 2 0 0 1-3.86-1.03L78.08 3.6a2 2 0 0 1 2.45-1.42z" fill="#e5e5e5" transform="rotate(165 64 64)"/><path d="M80.53 2.18a2 2 0 0 1 1.42 2.45L74.7 31.67a2 2 0 0 1-3.86-1.03L78.08 3.6a2 2 0 0 1 2.45-1.42z" fill="#e5e5e5" transform="rotate(180 64 64)"/><path d="M80.53 2.18a2 2 0 0 1 1.42 2.45L74.7 31.67a2 2 0 0 1-3.86-1.03L78.08 3.6a2 2 0 0 1 2.45-1.42z" fill="#e5e5e5" transform="rotate(195 64 64)"/><path d="M80.53 2.18a2 2 0 0 1 1.42 2.45L74.7 31.67a2 2 0 0 1-3.86-1.03L78.08 3.6a2 2 0 0 1 2.45-1.42z" fill="#e5e5e5" transform="rotate(210 64 64)"/><path d="M80.53 2.18a2 2 0 0 1 1.42 2.45L74.7 31.67a2 2 0 0 1-3.86-1.03L78.08 3.6a2 2 0 0 1 2.45-1.42z" fill="#cccccc" transform="rotate(225 64 64)"/><path d="M80.53 2.18a2 2 0 0 1 1.42 2.45L74.7 31.67a2 2 0 0 1-3.86-1.03L78.08 3.6a2 2 0 0 1 2.45-1.42z" fill="#b2b2b2" transform="rotate(240 64 64)"/><path d="M80.53 2.18a2 2 0 0 1 1.42 2.45L74.7 31.67a2 2 0 0 1-3.86-1.03L78.08 3.6a2 2 0 0 1 2.45-1.42z" fill="#999999" transform="rotate(255 64 64)"/><path d="M80.53 2.18a2 2 0 0 1 1.42 2.45L74.7 31.67a2 2 0 0 1-3.86-1.03L78.08 3.6a2 2 0 0 1 2.45-1.42z" fill="#7f7f7f" transform="rotate(270 64 64)"/><path d="M80.53 2.18a2 2 0 0 1 1.42 2.45L74.7 31.67a2 2 0 0 1-3.86-1.03L78.08 3.6a2 2 0 0 1 2.45-1.42z" fill="#666666" transform="rotate(285 64 64)"/><path d="M80.53 2.18a2 2 0 0 1 1.42 2.45L74.7 31.67a2 2 0 0 1-3.86-1.03L78.08 3.6a2 2 0 0 1 2.45-1.42z" fill="#4c4c4c" transform="rotate(300 64 64)"/><path d="M80.53 2.18a2 2 0 0 1 1.42 2.45L74.7 31.67a2 2 0 0 1-3.86-1.03L78.08 3.6a2 2 0 0 1 2.45-1.42z" fill="#333333" transform="rotate(315 64 64)"/><path d="M80.53 2.18a2 2 0 0 1 1.42 2.45L74.7 31.67a2 2 0 0 1-3.86-1.03L78.08 3.6a2 2 0 0 1 2.45-1.42z" fill="#191919" transform="rotate(330 64 64)"/><path d="M64 0a2 2 0 0 1 2 2v60a2 2 0 0 1-4 0V2a2 2 0 0 1 2-2z" fill="#000000"/><animateTransform attributeName="transform" type="rotate" values="0 64 64;15 64 64;30 64 64;45 64 64;60 64 64;75 64 64;90 64 64;105 64 64;120 64 64;135 64 64;150 64 64;165 64 64;180 64 64;195 64 64;210 64 64;225 64 64;240 64 64;255 64 64;270 64 64;285 64 64;300 64 64;315 64 64;330 64 64;345 64 64" calcMode="discrete" dur="1200ms" repeatCount="indefinite"></animateTransform></g></svg>