<svg id="Capa_1" enable-background="new 0 0 512 512" height="512" viewBox="0 0 512 512" width="512" xmlns="http://www.w3.org/2000/svg"><g><path d="m472.436 64.129h-432.872c-21.815 0-39.564 17.749-39.564 39.564v304.613c0 21.815 17.749 39.564 39.564 39.564h432.871c21.816 0 39.564-17.749 39.564-39.564v-304.613c.001-21.815-17.748-39.564-39.563-39.564zm-141.701 191.871 163.537-163.536c1.739 3.369 2.728 7.185 2.728 11.229v304.613c0 4.045-.989 7.861-2.728 11.229zm141.701-176.871c4.045 0 7.861.989 11.23 2.729l-176.287 176.286c-28.331 28.33-74.428 28.33-102.759 0l-24.597-24.598c-2.929-2.929-7.678-2.929-10.606 0-2.929 2.929-2.929 7.678 0 10.606l11.848 11.848-163.537 163.536c-1.739-3.369-2.728-7.184-2.728-11.229v-304.614c0-4.045.989-7.861 2.728-11.229l127.753 127.753c1.464 1.465 3.384 2.197 5.303 2.197s3.839-.732 5.303-2.197c2.929-2.929 2.929-7.678 0-10.606l-127.752-127.754c3.368-1.739 7.185-2.729 11.23-2.729h432.871zm-432.872 353.742c-4.045 0-7.861-.989-11.23-2.729l163.537-163.536 2.143 2.144c17.089 17.089 39.538 25.634 61.986 25.634s44.896-8.544 61.986-25.634l2.143-2.144 163.536 163.536c-3.368 1.739-7.185 2.729-11.23 2.729z"/></g></svg>